<?xml version="1.0" encoding="utf-8"?>
<!-- Generator: Adobe Illustrator 16.0.4, SVG Export Plug-In . SVG Version: 6.00 Build 0)  -->
<!DOCTYPE svg PUBLIC "-//W3C//DTD SVG 1.1//EN" "http://www.w3.org/Graphics/SVG/1.1/DTD/svg11.dtd">
<svg version="1.1" id="Layer_1" xmlns="http://www.w3.org/2000/svg" xmlns:xlink="http://www.w3.org/1999/xlink" x="0px" y="0px"
	 width="17.498px" height="30px" viewBox="-2.139 0 17.498 30" enable-background="new -2.139 0 17.498 30" xml:space="preserve">
<title>arrow-left</title>
<desc>Created with Sketch.</desc>
<g>
	<g>
		<path d="M12.861,29.997c-0.259,0-0.492-0.101-0.693-0.303L-1.836,15.69c-0.202-0.202-0.303-0.431-0.303-0.693
			c0-0.259,0.101-0.488,0.303-0.69L12.171,0.3C12.37,0.101,12.602,0,12.861,0s0.492,0.101,0.693,0.3l1.501,1.504
			c0.202,0.202,0.303,0.431,0.303,0.69c0,0.262-0.101,0.491-0.303,0.693L3.244,15l11.812,11.812c0.202,0.202,0.303,0.431,0.303,0.69
			c0,0.262-0.101,0.491-0.303,0.693l-1.501,1.501C13.353,29.899,13.121,30,12.861,30V29.997z"/>
	</g>
</g>
<text transform="matrix(1 0 0 1 0 1199.25)" font-family="'HelveticaNeue-BoldOutline'" font-size="191.25">Created by Futishia</text>
<text transform="matrix(1 0 0 1 0 1390.5)" font-family="'HelveticaNeue-BoldOutline'" font-size="191.25">from the Noun Project</text>
</svg>
