<?xml version="1.0" encoding="utf-8"?>
<!-- Generator: Adobe Illustrator 16.0.4, SVG Export Plug-In . SVG Version: 6.00 Build 0)  -->
<!DOCTYPE svg PUBLIC "-//W3C//DTD SVG 1.1//EN" "http://www.w3.org/Graphics/SVG/1.1/DTD/svg11.dtd">
<svg version="1.1" id="Layer_1" xmlns="http://www.w3.org/2000/svg" xmlns:xlink="http://www.w3.org/1999/xlink" x="0px" y="0px"
	 width="17.498px" height="30px" viewBox="-2.139 0 17.498 30" enable-background="new -2.139 0 17.498 30" xml:space="preserve">
<g>
	<g>
		<path fill="#FFFFFF" d="M0.359,0.003c0.259,0,0.492,0.101,0.693,0.303L15.056,14.31c0.202,0.202,0.303,0.431,0.303,0.693
			c0,0.259-0.101,0.488-0.303,0.69L1.049,29.7C0.851,29.899,0.618,30,0.359,30s-0.492-0.101-0.693-0.3l-1.501-1.504
			c-0.202-0.202-0.303-0.431-0.303-0.69c0-0.262,0.101-0.491,0.303-0.693L9.976,15L-1.836,3.188
			c-0.202-0.202-0.303-0.431-0.303-0.69c0-0.262,0.101-0.491,0.303-0.693l1.501-1.501C-0.133,0.101,0.1,0,0.359,0V0.003z"/>
	</g>
</g>
</svg>
